<svg xmlns="http://www.w3.org/2000/svg" width="135" height="135" viewBox="0 0 135 135"><defs><style>.a,.f{fill:#fff;}.b,.c,.e{fill:none;}.b{stroke:#27397c;}.b,.c,.d,.e,.f{stroke-linecap:round;stroke-linejoin:round;stroke-width:2px;}.c,.d{stroke:#1f3a93;}.d{fill:#d2d8e9;}.e,.f{stroke:#0c9e8f;}.g,.h{stroke:none;}.h{fill:#0ba191;}</style></defs><g transform="translate(-653 -411)"><g class="a" transform="translate(653 411)"><path class="g" d="M 67.5 134.5 C 58.45483779907227 134.5 49.68050765991211 132.7286071777344 41.42072677612305 129.2350158691406 C 37.4508171081543 127.5558700561523 33.62178039550781 125.4775466918945 30.04001808166504 123.057746887207 C 26.49214553833008 120.6608581542969 23.15585517883301 117.9081649780273 20.12385368347168 114.8761444091797 C 17.09183692932129 111.8441467285156 14.33914566040039 108.5078582763672 11.9422550201416 104.9599838256836 C 9.522454261779785 101.3782196044922 7.444127082824707 97.54917907714844 5.764981746673584 93.57926940917969 C 2.271399974822998 85.31948852539063 0.5 76.545166015625 0.5 67.5 C 0.5 58.45483779907227 2.271399974822998 49.68050765991211 5.764981746673584 41.42072677612305 C 7.444127082824707 37.4508171081543 9.522454261779785 33.62178039550781 11.9422550201416 30.04001808166504 C 14.33914566040039 26.49214553833008 17.09183692932129 23.15585517883301 20.12385368347168 20.12385368347168 C 23.15585517883301 17.09183692932129 26.49214553833008 14.33914566040039 30.04001808166504 11.9422550201416 C 33.62178039550781 9.522454261779785 37.4508171081543 7.444127082824707 41.42072677612305 5.764981746673584 C 49.68050765991211 2.271399974822998 58.45483779907227 0.5 67.5 0.5 C 76.545166015625 0.5 85.31948852539063 2.271399974822998 93.57926940917969 5.764981746673584 C 97.54917907714844 7.444127082824707 101.3782196044922 9.522454261779785 104.9599838256836 11.9422550201416 C 108.5078582763672 14.33914566040039 111.8441467285156 17.09183692932129 114.8761444091797 20.12385368347168 C 117.9081649780273 23.15585517883301 120.6608581542969 26.49214553833008 123.057746887207 30.04001808166504 C 125.4775466918945 33.62178039550781 127.5558700561523 37.4508171081543 129.2350158691406 41.42072677612305 C 132.7286071777344 49.68050765991211 134.5 58.45483779907227 134.5 67.5 C 134.5 76.545166015625 132.7286071777344 85.31948852539063 129.2350158691406 93.57926940917969 C 127.5558700561523 97.54917907714844 125.4775466918945 101.3782196044922 123.057746887207 104.9599838256836 C 120.6608581542969 108.5078582763672 117.9081649780273 111.8441467285156 114.8761444091797 114.8761444091797 C 111.8441467285156 117.9081649780273 108.5078582763672 120.6608581542969 104.9599838256836 123.057746887207 C 101.3782196044922 125.4775466918945 97.54917907714844 127.5558700561523 93.57926940917969 129.2350158691406 C 85.31948852539063 132.7286071777344 76.545166015625 134.5 67.5 134.5 Z"/><path class="h" d="M 67.5 1 C 58.52210998535156 1 49.81330871582031 2.758102416992188 41.61550903320313 6.225494384765625 C 37.67532348632813 7.892051696777344 33.87494659423828 9.954833984375 30.31990814208984 12.3565673828125 C 26.79841613769531 14.73565673828125 23.48690795898438 17.46788787841797 20.47740173339844 20.47740173339844 C 17.46788787841797 23.48690795898438 14.73565673828125 26.79841613769531 12.3565673828125 30.31990814208984 C 9.954833984375 33.87494659423828 7.892051696777344 37.67532348632813 6.225494384765625 41.61550903320313 C 2.758102416992188 49.81330871582031 1 58.52210998535156 1 67.5 C 1 76.47789001464844 2.758102416992188 85.18669128417969 6.225494384765625 93.38449096679688 C 7.892051696777344 97.32467651367188 9.954833984375 101.1250534057617 12.3565673828125 104.6800918579102 C 14.73565673828125 108.2015838623047 17.46788787841797 111.5130920410156 20.47740173339844 114.5225982666016 C 23.48690795898438 117.5321044921875 26.79841613769531 120.2643432617188 30.31990814208984 122.6434326171875 C 33.87494659423828 125.045166015625 37.67532348632813 127.1079483032227 41.61550903320313 128.7745056152344 C 49.81330871582031 132.2418975830078 58.52210998535156 134 67.5 134 C 76.47789001464844 134 85.18669128417969 132.2418975830078 93.38449096679688 128.7745056152344 C 97.32467651367188 127.1079483032227 101.1250534057617 125.045166015625 104.6800918579102 122.6434326171875 C 108.2015838623047 120.2643432617188 111.5130920410156 117.5321044921875 114.5225982666016 114.5225982666016 C 117.5321044921875 111.5130920410156 120.2643432617188 108.2015838623047 122.6434326171875 104.6800918579102 C 125.045166015625 101.1250534057617 127.1079483032227 97.32467651367188 128.7745056152344 93.38449096679688 C 132.2418975830078 85.18669128417969 134 76.47789001464844 134 67.5 C 134 58.52210998535156 132.2418975830078 49.81330871582031 128.7745056152344 41.61550903320313 C 127.1079483032227 37.67532348632813 125.045166015625 33.87494659423828 122.6434326171875 30.31990814208984 C 120.2643432617188 26.79841613769531 117.5321044921875 23.48690795898438 114.5225982666016 20.47740173339844 C 111.5130920410156 17.46788787841797 108.2015838623047 14.73565673828125 104.6800918579102 12.3565673828125 C 101.1250534057617 9.954833984375 97.32467651367188 7.892051696777344 93.38449096679688 6.225494384765625 C 85.18669128417969 2.758102416992188 76.47789001464844 1 67.5 1 M 67.5 0 C 104.7792205810547 0 135 30.22077941894531 135 67.5 C 135 104.7792205810547 104.7792205810547 135 67.5 135 C 30.22077941894531 135 0 104.7792205810547 0 67.5 C 0 30.22077941894531 30.22077941894531 0 67.5 0 Z"/></g><g transform="translate(589.73 308.242)"><path class="b" d="M156.8,211.2V159.258H144.3V146.7h-31.25v60.5"/><path class="c" d="M113.054,207.2l4.857,4,4.86-4,4.86,4,4.86-4,4.858,4,4.859-4,4.863,4,4.867-4,4.867,4"/><path class="d" d="M144.3,159.258h12.5l-12.5-12.5Z"/><line class="c" y1="4.33" x2="4.33" transform="translate(161.135 138.098)"/><line class="c" y1="2.165" x2="2.165" transform="translate(161.135 140.263)"/><line class="e" y1="2.958" x2="0.792" transform="translate(152.899 134.715)"/><line class="c" x1="1.585" y1="5.915" transform="translate(141.804 131.758)"/><line class="c" x1="0.792" y1="2.957" transform="translate(142.597 134.715)"/><line class="c" x2="5.915" y2="1.585" transform="translate(165.889 160.173)"/><line class="c" x2="2.957" y2="0.792" transform="translate(165.889 160.173)"/><line class="e" y1="0.792" x2="2.957" transform="translate(165.889 149.871)"/><circle class="f" cx="18.75" cy="18.75" r="18.75" transform="translate(94.375 134.257)"/><path class="e" d="M98.316,164.5l-8.36,8.36a2.344,2.344,0,1,0,3.315,3.314l8.36-8.36a18.267,18.267,0,0,1-3.315-3.314Z"/><path class="e" d="M100.422,147.746a13.7,13.7,0,0,1,7.441-7.442"/><path class="c" d="M113.054,166.754V146.7h12.277"/><path class="e" d="M98.316,164.5l-2.471,2.471,3.315,3.314,2.471-2.471a18.267,18.267,0,0,1-3.315-3.314Z"/><line class="b" x1="2.625" y2="10.5" transform="translate(121.471 179.048)"/><line class="b" y2="10.5" transform="translate(126.721 184.298)"/><line class="b" x1="7.14" transform="translate(121.471 189.548)"/><line class="b" x1="2.625" y2="10.5" transform="translate(142.471 179.048)"/><line class="b" y2="10.5" transform="translate(147.721 184.298)"/><line class="b" x1="7.14" transform="translate(142.471 189.548)"/><rect class="b" width="7.14" height="15.75" rx="3" transform="translate(131.971 179.048)"/></g></g></svg>