<svg xmlns="http://www.w3.org/2000/svg" width="135" height="135" viewBox="0 0 135 135"><defs><style>.a{fill:#fff;}.b{fill:#27397c;}.c{fill:#0c9e8f;}.d,.e{stroke:none;}.e{fill:#0ba191;}</style></defs><g transform="translate(-653 -411)"><g class="a" transform="translate(653 411)"><path class="d" d="M 67.5 134.5 C 58.45483779907227 134.5 49.68050765991211 132.7286071777344 41.42072677612305 129.2350158691406 C 37.4508171081543 127.5558700561523 33.62178039550781 125.4775466918945 30.04001808166504 123.057746887207 C 26.49214553833008 120.6608581542969 23.15585517883301 117.9081649780273 20.12385368347168 114.8761444091797 C 17.09183692932129 111.8441467285156 14.33914566040039 108.5078582763672 11.9422550201416 104.9599838256836 C 9.522454261779785 101.3782196044922 7.444127082824707 97.54917907714844 5.764981746673584 93.57926940917969 C 2.271399974822998 85.31948852539063 0.5 76.545166015625 0.5 67.5 C 0.5 58.45483779907227 2.271399974822998 49.68050765991211 5.764981746673584 41.42072677612305 C 7.444127082824707 37.4508171081543 9.522454261779785 33.62178039550781 11.9422550201416 30.04001808166504 C 14.33914566040039 26.49214553833008 17.09183692932129 23.15585517883301 20.12385368347168 20.12385368347168 C 23.15585517883301 17.09183692932129 26.49214553833008 14.33914566040039 30.04001808166504 11.9422550201416 C 33.62178039550781 9.522454261779785 37.4508171081543 7.444127082824707 41.42072677612305 5.764981746673584 C 49.68050765991211 2.271399974822998 58.45483779907227 0.5 67.5 0.5 C 76.545166015625 0.5 85.31948852539063 2.271399974822998 93.57926940917969 5.764981746673584 C 97.54917907714844 7.444127082824707 101.3782196044922 9.522454261779785 104.9599838256836 11.9422550201416 C 108.5078582763672 14.33914566040039 111.8441467285156 17.09183692932129 114.8761444091797 20.12385368347168 C 117.9081649780273 23.15585517883301 120.6608581542969 26.49214553833008 123.057746887207 30.04001808166504 C 125.4775466918945 33.62178039550781 127.5558700561523 37.4508171081543 129.2350158691406 41.42072677612305 C 132.7286071777344 49.68050765991211 134.5 58.45483779907227 134.5 67.5 C 134.5 76.545166015625 132.7286071777344 85.31948852539063 129.2350158691406 93.57926940917969 C 127.5558700561523 97.54917907714844 125.4775466918945 101.3782196044922 123.057746887207 104.9599838256836 C 120.6608581542969 108.5078582763672 117.9081649780273 111.8441467285156 114.8761444091797 114.8761444091797 C 111.8441467285156 117.9081649780273 108.5078582763672 120.6608581542969 104.9599838256836 123.057746887207 C 101.3782196044922 125.4775466918945 97.54917907714844 127.5558700561523 93.57926940917969 129.2350158691406 C 85.31948852539063 132.7286071777344 76.545166015625 134.5 67.5 134.5 Z"/><path class="e" d="M 67.5 1 C 58.52210998535156 1 49.81330871582031 2.758102416992188 41.61550903320313 6.225494384765625 C 37.67532348632813 7.892051696777344 33.87494659423828 9.954833984375 30.31990814208984 12.3565673828125 C 26.79841613769531 14.73565673828125 23.48690795898438 17.46788787841797 20.47740173339844 20.47740173339844 C 17.46788787841797 23.48690795898438 14.73565673828125 26.79841613769531 12.3565673828125 30.31990814208984 C 9.954833984375 33.87494659423828 7.892051696777344 37.67532348632813 6.225494384765625 41.61550903320313 C 2.758102416992188 49.81330871582031 1 58.52210998535156 1 67.5 C 1 76.47789001464844 2.758102416992188 85.18669128417969 6.225494384765625 93.38449096679688 C 7.892051696777344 97.32467651367188 9.954833984375 101.1250534057617 12.3565673828125 104.6800918579102 C 14.73565673828125 108.2015838623047 17.46788787841797 111.5130920410156 20.47740173339844 114.5225982666016 C 23.48690795898438 117.5321044921875 26.79841613769531 120.2643432617188 30.31990814208984 122.6434326171875 C 33.87494659423828 125.045166015625 37.67532348632813 127.1079483032227 41.61550903320313 128.7745056152344 C 49.81330871582031 132.2418975830078 58.52210998535156 134 67.5 134 C 76.47789001464844 134 85.18669128417969 132.2418975830078 93.38449096679688 128.7745056152344 C 97.32467651367188 127.1079483032227 101.1250534057617 125.045166015625 104.6800918579102 122.6434326171875 C 108.2015838623047 120.2643432617188 111.5130920410156 117.5321044921875 114.5225982666016 114.5225982666016 C 117.5321044921875 111.5130920410156 120.2643432617188 108.2015838623047 122.6434326171875 104.6800918579102 C 125.045166015625 101.1250534057617 127.1079483032227 97.32467651367188 128.7745056152344 93.38449096679688 C 132.2418975830078 85.18669128417969 134 76.47789001464844 134 67.5 C 134 58.52210998535156 132.2418975830078 49.81330871582031 128.7745056152344 41.61550903320313 C 127.1079483032227 37.67532348632813 125.045166015625 33.87494659423828 122.6434326171875 30.31990814208984 C 120.2643432617188 26.79841613769531 117.5321044921875 23.48690795898438 114.5225982666016 20.47740173339844 C 111.5130920410156 17.46788787841797 108.2015838623047 14.73565673828125 104.6800918579102 12.3565673828125 C 101.1250534057617 9.954833984375 97.32467651367188 7.892051696777344 93.38449096679688 6.225494384765625 C 85.18669128417969 2.758102416992188 76.47789001464844 1 67.5 1 M 67.5 0 C 104.7792205810547 0 135 30.22077941894531 135 67.5 C 135 104.7792205810547 104.7792205810547 135 67.5 135 C 30.22077941894531 135 0 104.7792205810547 0 67.5 C 0 30.22077941894531 30.22077941894531 0 67.5 0 Z"/></g><g transform="translate(1038.234 -157.15)"><g transform="translate(-343.589 607.116)"><g transform="translate(0 0)"><path class="b" d="M-242.53,1128.006v-28.095h-2.789V1130.8h13.959v-2.8Z" transform="translate(245.319 -1072.885)"/><path class="b" d="M102.785,725.506v20.955H99.99V728.3H82.281l-1.729-2.8Z" transform="translate(-57.029 -725.506)"/><g transform="translate(16.629 23.324)"><g transform="translate(0)"><g transform="translate(0 14.863)"><path class="b" d="M9.613,1266.2l2.75-1.628-1.458-3.506-3.092.792a10.823,10.823,0,0,0-2.792-2.8l.794-3.092-3.513-1.45L.68,1257.257a10.985,10.985,0,0,0-3.955,0l-1.629-2.742-3.5,1.45.792,3.092a11.073,11.073,0,0,0-2.8,2.792l-3.085-.785-1.456,3.506,2.742,1.628a11.114,11.114,0,0,0,0,3.949l-2.742,1.628,1.456,3.513,3.092-.793a11.135,11.135,0,0,0,2.785,2.8l-.785,3.085,3.5,1.45,1.629-2.742a10.946,10.946,0,0,0,3.948,0L2.3,1281.83l3.513-1.45-.794-3.092a11.07,11.07,0,0,0,2.8-2.792l3.085.793,1.458-3.513-2.742-1.621A10.992,10.992,0,0,0,9.613,1266.2Zm-6.762,3.692a4.489,4.489,0,0,1-5.87,2.435,4.5,4.5,0,0,1-2.435-5.87,4.5,4.5,0,0,1,5.877-2.435A4.491,4.491,0,0,1,2.851,1269.89Z" transform="translate(14.958 -1254.515)"/></g><g transform="translate(19.759)"><path class="b" d="M277.259,1054.957l1.521-2.028-2.132-2.127-2.025,1.519a8.584,8.584,0,0,0-2.9-1.2l-.357-2.507-3.014,0-.356,2.5a8.717,8.717,0,0,0-2.9,1.2l-2.026-1.515-2.128,2.126,1.519,2.025a8.784,8.784,0,0,0-1.2,2.9l-2.5.361,0,3.011,2.5.361a8.816,8.816,0,0,0,1.2,2.894l-1.515,2.025,2.133,2.133,2.025-1.519a8.829,8.829,0,0,0,2.891,1.206l.361,2.5,3.008,0,.361-2.5a8.687,8.687,0,0,0,2.893-1.2l2.026,1.515,2.135-2.129-1.52-2.025a8.774,8.774,0,0,0,1.2-2.9l2.5-.356,0-3.017-2.5-.356A8.719,8.719,0,0,0,277.259,1054.957Zm-3.218,4.757a4.18,4.18,0,1,1-4.176-4.18A4.176,4.176,0,0,1,274.041,1059.714Z" transform="translate(-258.76 -1048.611)"/></g></g></g></g></g><g transform="translate(-351.234 597.904)"><g transform="translate(0 0)"><path class="c" d="M-312.614,623.356l-14.079-22.773a5.649,5.649,0,0,0-9.61,0l-14.079,22.773a5.649,5.649,0,0,0,4.8,8.619h28.158A5.649,5.649,0,0,0-312.614,623.356Zm-3.39,3.76a1.563,1.563,0,0,1-1.415.831h-28.158a1.567,1.567,0,0,1-1.415-.831,1.567,1.567,0,0,1,.038-1.642l14.079-22.773a1.573,1.573,0,0,1,1.378-.769,1.575,1.575,0,0,1,1.379.769l14.079,22.774A1.566,1.566,0,0,1-316,627.116Z" transform="translate(351.234 -597.904)"/><g transform="translate(17.15 9.602)"><g transform="translate(0)"><path class="c" d="M-111.065,730.926h0a2.586,2.586,0,0,1,2.579,2.787l-.57,7.318a2.014,2.014,0,0,1-2.008,1.858h0a2.014,2.014,0,0,1-2.008-1.858l-.57-7.318A2.586,2.586,0,0,1-111.065,730.926Zm-2.473,16.244a2.312,2.312,0,0,1,2.473-2.3,2.313,2.313,0,0,1,2.474,2.3,2.354,2.354,0,0,1-2.474,2.339A2.353,2.353,0,0,1-113.538,747.17Z" transform="translate(113.652 -730.926)"/></g></g></g></g></g></g></svg>