<svg xmlns="http://www.w3.org/2000/svg" width="21.8" height="18" viewBox="0 0 21.8 18"><defs><style>.a{fill:#0c9e8f;}</style></defs><path class="a" d="M12.9,18h0a2.414,2.414,0,0,1-1.407-.443,2.488,2.488,0,0,1-.942-1.391H.589a.579.579,0,1,1,0-1.158h9.9a3.9,3.9,0,0,1,.412-.869,2.427,2.427,0,0,1,1.591-.986c.1-.009.205-.014.3-.014a2.445,2.445,0,0,1,1.522.477,2.485,2.485,0,0,1,.942,1.391h5.951a.579.579,0,1,1,0,1.158H15.259a1.953,1.953,0,0,1-.412.869A2.417,2.417,0,0,1,12.9,18Zm-.046-3.585a1.231,1.231,0,0,0-1.008.537,1.028,1.028,0,0,0-.235.579v.232a1.3,1.3,0,0,0,1.3,1.112,1.26,1.26,0,0,0,1-.476,1.146,1.146,0,0,0,.236-.753v-.174a1.12,1.12,0,0,0-.531-.811A1.509,1.509,0,0,0,12.85,14.415ZM6.417,11.454a2.415,2.415,0,0,1-1.409-.442,2.485,2.485,0,0,1-.942-1.391H.589a.579.579,0,1,1,0-1.158H4.066a3.036,3.036,0,0,1,.412-.869,2.461,2.461,0,0,1,4.359.869H21.211a.579.579,0,1,1,0,1.158H8.837a1.952,1.952,0,0,1-.412.869A2.577,2.577,0,0,1,6.417,11.454ZM6.46,7.759a1.276,1.276,0,0,0-1.04.53,1.074,1.074,0,0,0-.235.926,1.12,1.12,0,0,0,.53.812,1.187,1.187,0,0,0,.727.24,1.278,1.278,0,0,0,1.04-.53,1.149,1.149,0,0,0,.235-.753V8.81A1.12,1.12,0,0,0,7.188,8,1.186,1.186,0,0,0,6.46,7.759Zm8.718-2.869a2.364,2.364,0,0,1-1.45-.484,2.485,2.485,0,0,1-.943-1.391H.589A.553.553,0,0,1,0,2.437a.553.553,0,0,1,.589-.578h12.2A3.051,3.051,0,0,1,13.2.989,2.463,2.463,0,0,1,16.615.468a2.485,2.485,0,0,1,.943,1.391h3.654a.553.553,0,0,1,.589.578.553.553,0,0,1-.589.579H17.558a1.962,1.962,0,0,1-.412.869A2.387,2.387,0,0,1,15.178,4.891Zm0-3.679a1.275,1.275,0,0,0-1.04.53,1.073,1.073,0,0,0-.236.927,1.118,1.118,0,0,0,.531.811,1.2,1.2,0,0,0,.728.24A1.274,1.274,0,0,0,16.2,3.19a1.148,1.148,0,0,0,.236-.753V2.263a1.118,1.118,0,0,0-.531-.811A1.184,1.184,0,0,0,15.18,1.212Z" transform="translate(0 0)"/></svg>