<svg xmlns="http://www.w3.org/2000/svg" width="119.187" height="144.5"><defs><linearGradient id="a" y1=".5" x2="1" y2=".5" gradientUnits="objectBoundingBox"><stop offset="0" stop-color="#09a898"/><stop offset="1" stop-color="#0c9e8f"/></linearGradient><style>.b{fill:#fff}.c{fill:#767472}</style></defs><path d="M0 0h119.187v106.227H0z" fill="url(#a)"/><path class="b" d="M85.221 32.188h-69.38V25.67h44.374v-4.32H15.841v-6.021h23.221v-4.32h-23.1a4.32 4.32 0 00-4.447 4.141v64.92h4.32V36.575h69.386zm-.876 22.055h4.307v6.325h-4.307zm16.446 0h3.931v6.325h-3.931zm6.202 0h3.931v6.325h-3.931z"/><path class="b" d="M103.703 82.691h-9.084V70.705c0-5.011-3.024-8.022-8.1-8.022a33.126 33.126 0 00-7.714 1.148l-.475.117v9.257h4.32v-6.171a20.229 20.229 0 013.882-.4c2.691 0 3.789 1.234 3.789 4.215v11.842H71.682V70.705c0-4.937-3.085-8.022-8.1-8.022a17.581 17.581 0 00-6.609 1.641v-1.5h-4.32v19.864h-3.73a.945.945 0 00-.222-.043h-3.462v-11.94c0-4.937-3.085-8.022-8.1-8.022a16.578 16.578 0 00-6.615 1.79V63.06h-4.32v22.425c0 3.807-1.666 5.554-5.245 5.554s-5.153-1.722-5.153-5.554V74.194H11.49v11.293c0 6.041 3.45 9.51 9.46 9.51 5.554 0 9.1-3.116 9.522-8.368h77.539V63.08h-4.32zM63.592 66.605c2.66 0 3.8 1.234 3.8 4.215v11.867h-10.4V68.115a19.038 19.038 0 016.609-1.469zM30.53 68.251a18.18 18.18 0 016.6-1.6c2.654 0 3.789 1.234 3.789 4.215v11.83H30.53z"/><path class="c" d="M10.361 123.747a1.765 1.765 0 01-1.962 1.913H4.208c-2.561 0-3.832-1.08-3.832-3.246V120.4H1.95v2.012a1.469 1.469 0 00.617 1.4 3.32 3.32 0 001.617.29h2.992a2.61 2.61 0 00.95-.111 1.043 1.043 0 00.611-1.068v-2.512h1.6zm-5.282-3.332H3.626V119.1h1.45zm2.185 0H5.819V119.1h1.444zm7.756 5.248h-1.524a1.777 1.777 0 01-1.962-1.913v-5.557h1.623v4.715c0 .79.2 1.234 1.388 1.234h.475z"/><path class="c" d="M17.266 125.66h-2.468v-1.555h2.468z"/><path class="c" d="M19.562 125.66h-2.468v-1.555h2.468z"/><path class="c" d="M31.095 125.66h-11.99v-1.555h1.463c.531 0 .821-.278.821-1.111v-2.043h1.623v1.493a4.881 4.881 0 013.659-2.073c1.9 0 3.011 1.345 3.16 3.7h1.234zm-2.956-1.555v-.2c0-1.2-.617-2.1-1.611-2.1-1.191 0-2.259.778-3.147 2.3z"/><path class="c" d="M33.36 125.66h-2.468v-1.555h2.468z"/><path class="c" d="M35.649 125.66h-2.468v-1.555h2.468z"/><path class="c" d="M47.189 125.66h-11.99v-1.555h1.463c.531 0 .821-.278.821-1.111v-2.043h1.623v1.493a4.881 4.881 0 013.659-2.073c1.894 0 3.011 1.345 3.16 3.7h1.234zm-2.956-1.555v-.2c0-1.2-.617-2.1-1.611-2.1-1.191 0-2.259.778-3.147 2.3z"/><path class="c" d="M49.466 125.66h-2.468v-1.555h2.468z"/><path class="c" d="M51.743 125.66h-2.468v-1.555h2.468z"/><path class="c" d="M60.951 125.659h-9.448v-1.555h6.6a2.468 2.468 0 00-.66-1.574 2.3 2.3 0 00-1.808-.753 2.888 2.888 0 00-1.938.833l-.808-1.1a3.82 3.82 0 012.863-1.234 4.252 4.252 0 011.8.37 4.041 4.041 0 012.166 3.45h1.234zm-4.5-6.128H55.02v-1.332h1.438z"/><path class="c" d="M63.186 125.66h-2.47v-1.555h2.47z"/><path class="c" d="M64.191 119.532h-1.438v-1.333h1.438zm4.011 6.127h-5.227v-1.555h1.068c.543 0 .821-.37.821-1.111v-2.579h1.635v2.524a3.53 3.53 0 01-.2 1.166h1.9zm-1.851-6.128h-1.438v-1.332h1.438z"/><path class="c" d="M70.448 125.66H67.98v-1.555h2.468z"/><path class="c" d="M73.639 123.42a2.314 2.314 0 01-.506 1.524 1.938 1.938 0 01-1.6.71h-1.53v-1.555h1.191c.543 0 .821-.383.821-1.135v-4.77h1.623zm2.798 2.24h-1.62v-7.473h1.62zm16.159 0h-1.634a1.975 1.975 0 01-1.95-1.425 1.851 1.851 0 01-1.641.7c-1.389 0-2.283-1.234-2.283-2.808 0-1.722.87-2.832 2.4-2.832h3.086v3.647a1.049 1.049 0 001.179 1.179h.833zm-4.77-7.461h-1.438v-1.345h1.438zm1.086 3.8v-1.53h-1.061c-.66 0-1.148.728-1.148 1.635 0 .808.463 1.481 1.111 1.481s1.098-.634 1.098-1.584zm1.092-3.8h-1.442v-1.345H90z"/><path class="c" d="M94.761 125.66h-2.468v-1.555h2.468z"/><path class="c" d="M97.051 125.66h-2.468v-1.555h2.468z"/><path class="c" d="M100.328 123.419a2.314 2.314 0 01-.506 1.524 1.932 1.932 0 01-1.586.71h-1.382v-1.555h1.031c.543 0 .821-.383.821-1.135v-2.555h1.623zm-.093 4.153h-1.438v-1.339h1.438zm2.919-1.912h-1.623v-7.473h1.623zm7.93-.001h-1.525q-.278 1.907-2.641 1.907h-.173v-1.3h.111c.617 0 1-.228 1.123-.679a4.176 4.176 0 01-.994.068 2.549 2.549 0 01-2.629-2.641 2.6 2.6 0 115.2.037v1.049h1.506zm-3.123-1.555v-1.123a1.006 1.006 0 00-1-1.123c-.617 0-.938.475-.938 1.092a1.037 1.037 0 001 1.154z"/><path class="c" d="M113.25 125.66h-2.468v-1.555h2.468z"/><path class="c" d="M115.539 125.66h-2.468v-1.555h2.468z"/><path class="c" d="M118.816 123.419a2.314 2.314 0 01-.506 1.524 1.925 1.925 0 01-1.586.71h-1.382v-1.555h1.031c.549 0 .827-.383.827-1.135v-2.555h1.617zm-.093 4.153h-1.431v-1.339h1.432zM7.88 142.581H6.27a1.975 1.975 0 01-1.944-1.425 1.851 1.851 0 01-1.648.7c-1.388 0-2.277-1.234-2.277-2.8 0-1.728.864-2.839 2.394-2.839h3.086v3.647a1.055 1.055 0 001.185 1.179h.833zm-4.769-7.436H1.672v-1.339h1.439zm1.086 3.8v-1.53H3.129c-.66 0-1.142.728-1.142 1.635 0 .808.463 1.481 1.111 1.481s1.1-.66 1.1-1.611zm1.086-3.8H3.851v-1.339h1.431z"/><path class="c" d="M8.738 144.5H7.319v-1.333h1.419zm4.042-1.919h-5.2v-1.555h1.068c.543 0 .808-.37.808-1.111v-2.579h1.635v2.524a3.375 3.375 0 01-.185 1.166h1.893zm-1.851 1.919H9.497v-1.333h1.438z"/><path class="c" d="M20.463 142.585h-1.849a2.5 2.5 0 01-2.166.994 2.555 2.555 0 01-2.2-.994h-1.764v-1.555h1.3a2.452 2.452 0 012.629-2.709 2.468 2.468 0 012.715 2.709h1.339zm-2.962-1.586c0-.913-.352-1.382-1.031-1.382h-.117c-.617 0-.987.562-.987 1.314s.395 1.327 1.08 1.327 1.068-.481 1.068-1.259z"/><path class="c" d="M21.333 144.5h-1.438v-1.333h1.438zm4.067-1.919h-5.24v-1.555h1.068c.543 0 .808-.37.808-1.111v-2.579h1.635v2.524a3.53 3.53 0 01-.185 1.166h1.913zm-1.851 1.919h-1.476v-1.333h1.432z"/><path class="c" d="M30.336 142.581h-5.245v-1.555h1.1c.543 0 .821-.37.821-1.111v-4.77h1.629v4.739a3.53 3.53 0 01-.191 1.166h1.882z"/><path class="c" d="M39.895 142.58h-2.993a2.425 2.425 0 01-1.8-.808 3.327 3.327 0 01-1.086.574 4.733 4.733 0 01-1.438.234h-2.544v-1.555h2.53a2.8 2.8 0 001.475-.389 2.975 2.975 0 00-.876-.741 4.085 4.085 0 00-1.413-.58v-1.333a6.2 6.2 0 013.209-.938 5.77 5.77 0 013.579 1.271 5.1 5.1 0 01-.845 1.234 6.269 6.269 0 01-1.333 1.2 1.234 1.234 0 00.87.284h2.641zm-3.339-3.832a3.135 3.135 0 00-1.456-.383 3.166 3.166 0 00-1.382.321 4.728 4.728 0 01.833.463 4.321 4.321 0 01.722.7 3.147 3.147 0 00.753-.531 2.7 2.7 0 00.531-.57z"/><path class="c" d="M40.723 136.453h-1.438v-1.308h1.438zm4.011 6.128h-5.227v-1.555h1.068c.543 0 .821-.37.821-1.111v-2.579h1.635v2.524a3.53 3.53 0 01-.2 1.166h1.9zm-1.849-6.128h-1.44v-1.308h1.44z"/><path class="c" d="M47.881 140.345a2.314 2.314 0 01-.512 1.53 1.944 1.944 0 01-1.6.7H44.24v-1.555h1.2c.543 0 .821-.383.821-1.129v-4.746h1.623zm2.819 2.236h-1.641v-7.473H50.7zm13.67-1.88a1.759 1.759 0 01-1.955 1.911h-4.19q-3.838 0-3.838-3.246v-2.012h1.6v2.012a1.487 1.487 0 00.654 1.407 3.388 3.388 0 001.617.284h2.987a2.585 2.585 0 00.95-.111 1.043 1.043 0 00.58-1.068v-2.512h1.6zm-5.282-3.332h-1.445v-1.348h1.444zm2.191 0h-1.45v-1.348h1.45zm7.756 5.212h-1.53a1.771 1.771 0 01-1.956-1.913v-5.554h1.623v4.715c0 .79.2 1.2 1.388 1.2h.475z"/><path class="c" d="M69.973 144.5h-1.438v-1.333h1.438zm2.289-4.153a2.345 2.345 0 01-.506 1.53 1.944 1.944 0 01-1.586.7h-1.382v-1.551h1.047c.549 0 .827-.383.827-1.129v-2.561h1.617zm-.1 4.153h-1.444v-1.333h1.444zm7.894-1.919h-1.53c-.185 1.271-1.061 1.913-2.635 1.913h-.179v-1.327h.142c.617 0 .994-.228 1.123-.679a4.215 4.215 0 01-.994.068 2.542 2.542 0 01-2.629-2.641 2.6 2.6 0 115.2.037v1.049h1.506zm-3.129-1.555v-1.123a1.006 1.006 0 00-.994-1.123c-.617 0-.938.475-.938 1.092a1.037 1.037 0 00.994 1.154z"/><path class="c" d="M80.939 136.453h-1.432v-1.308h1.432zm4.011 6.128h-5.245v-1.555h1.068c.543 0 .821-.37.821-1.111v-2.579h1.633v2.524a3.375 3.375 0 01-.2 1.166h1.9zm-1.851-6.128H81.68v-1.308h1.432z"/><path class="c" d="M87.202 142.581h-2.468v-1.555h2.468z"/><path class="c" d="M98.909 142.586H86.98v-1.56h1.234c.531 0 .821-.284.821-1.1v-2.59h1.635v2.524a3.473 3.473 0 01-.2 1.166h1.031c.543 0 .821-.346.821-1.037v-2.653h1.623v2.524a3.474 3.474 0 01-.2 1.166h1.031c.543 0 .821-.346.821-1.037v-2.653h1.635v2.512a3.307 3.307 0 01-.21 1.179h1.888z"/><path class="c" d="M106.548 142.585h-1.851a2.506 2.506 0 01-2.166.994 2.555 2.555 0 01-2.2-.994h-1.774v-1.555h1.3a2.675 2.675 0 115.338 0h1.358zm-2.968-1.586c0-.913-.346-1.382-1.031-1.382h-.111c-.617 0-.987.562-.987 1.314s.395 1.327 1.08 1.327 1.049-.485 1.049-1.263z"/><path class="c" d="M109.579 140.345a2.345 2.345 0 01-.506 1.53 1.956 1.956 0 01-1.6.7h-1.53v-1.555h1.191c.543 0 .827-.383.827-1.129v-4.746h1.617zm2.835 2.236h-1.62v-7.473h1.62zm6.396-.235c0 1.426-.882 2.148-2.654 2.148h-.16v-1.327h.117a1.234 1.234 0 001.29-1.074 1.234 1.234 0 01-1.148.531 2.573 2.573 0 01-2.6-2.684 2.512 2.512 0 012.6-2.654 2.555 2.555 0 012.573 2.678zm-1.623-2.357c0-.71-.407-1.234-.987-1.234s-.95.488-.95 1.172a1.068 1.068 0 001.012 1.191c.58.025.926-.42.926-1.129z"/></svg>