<svg xmlns="http://www.w3.org/2000/svg" width="118.943" height="144.205"><defs><linearGradient id="a" y1=".5" x2="1" y2=".5" gradientUnits="objectBoundingBox"><stop offset="0" stop-color="#09a898"/><stop offset="1" stop-color="#0c9e8f"/></linearGradient><style>.b{fill:#fff}</style></defs><path fill="url(#a)" d="M0 0h118.943v106.011H0z"/><path class="b" d="M85.048 32.122H15.809v-6.5h44.283v-4.314H15.809v-6.01h23.174v-4.311H15.926a4.311 4.311 0 00-4.434 4.132v64.786h4.311v-43.4h69.245zm-.875 22.01h4.299v6.312h-4.299zm16.412 0h3.923v6.312h-3.923zm6.189 0h3.923v6.312h-3.923z"/><path class="b" d="M103.492 82.523h-9.065v-11.96c0-5-3.018-8.006-8.08-8.006a33.059 33.059 0 00-7.7 1.145l-.474.117v9.238h4.311v-6.158a20.187 20.187 0 013.874-.4c2.685 0 3.781 1.232 3.781 4.206v11.818h-18.6v-11.96c0-4.927-3.079-8.006-8.08-8.006a17.545 17.545 0 00-6.6 1.638v-1.5H52.55v19.824h-3.726a.943.943 0 00-.222-.043h-3.455V70.563c0-4.927-3.079-8.006-8.08-8.006a16.544 16.544 0 00-6.6 1.786v-1.41h-4.312v22.38c0 3.8-1.663 5.543-5.235 5.543s-5.142-1.718-5.142-5.543v-11.27h-4.311v11.27c0 6.029 3.443 9.49 9.441 9.49 5.543 0 9.077-3.11 9.5-8.351h77.38v-23.5h-4.311zm-40.03-16.046c2.654 0 3.787 1.232 3.787 4.206v11.843H56.867V67.977a19 19 0 016.6-1.466zm-33 1.638a18.143 18.143 0 016.583-1.6c2.648 0 3.781 1.232 3.781 4.206v11.806h-10.36zM10.34 123.494a1.761 1.761 0 01-1.958 1.909H4.2c-2.556 0-3.824-1.078-3.824-3.239v-2.007h1.57v2.008a1.466 1.466 0 00.616 1.4 3.313 3.313 0 001.614.289h2.987a2.6 2.6 0 00.948-.111 1.041 1.041 0 00.61-1.065v-2.506h1.6zm-5.272-3.326H3.626v-1.311h1.443zm2.18 0h-1.44v-1.311h1.441zm7.742 5.236h-1.521a1.774 1.774 0 01-1.958-1.909v-5.543h1.62v4.705c0 .788.2 1.232 1.386 1.232h.474z"/><path class="b" d="M17.231 125.404h-2.463v-1.552h2.463z"/><path class="b" d="M19.519 125.404h-2.46v-1.552h2.46z"/><path class="b" d="M31.032 125.404H19.066v-1.552h1.46c.53 0 .819-.277.819-1.109v-2.038h1.621v1.49a4.871 4.871 0 013.652-2.069c1.9 0 3.005 1.342 3.153 3.7h1.232zm-2.95-1.552v-.2c0-1.195-.616-2.094-1.607-2.094-1.189 0-2.254.776-3.141 2.3z"/><path class="b" d="M33.292 125.404h-2.463v-1.552h2.463z"/><path class="b" d="M35.577 125.404h-2.463v-1.552h2.463z"/><path class="b" d="M47.094 125.404H35.128v-1.552h1.46c.53 0 .819-.277.819-1.109v-2.038h1.62v1.49a4.871 4.871 0 013.652-2.069c1.891 0 3.005 1.342 3.153 3.7h1.232zm-2.95-1.552v-.2c0-1.195-.616-2.094-1.607-2.094-1.189 0-2.254.776-3.141 2.3z"/><path class="b" d="M49.365 125.404h-2.463v-1.552h2.463z"/><path class="b" d="M51.638 125.404h-2.463v-1.552h2.463z"/><path class="b" d="M60.827 125.403h-9.429v-1.552h6.59a2.464 2.464 0 00-.659-1.57 2.3 2.3 0 00-1.8-.751 2.882 2.882 0 00-1.934.831l-.807-1.1a3.812 3.812 0 012.857-1.232 4.244 4.244 0 011.8.37 4.032 4.032 0 012.162 3.443h1.232zm-4.5-6.115h-1.419v-1.33h1.435z"/><path class="b" d="M63.055 125.404h-2.463v-1.552h2.463z"/><path class="b" d="M64.06 119.288h-1.435v-1.33h1.435zm4 6.115h-5.216v-1.552h1.065c.542 0 .819-.37.819-1.109v-2.574h1.632v2.519a3.523 3.523 0 01-.2 1.164h1.9zm-1.848-6.115h-1.435v-1.33h1.435z"/><path class="b" d="M70.304 125.404h-2.463v-1.552h2.463z"/><path class="b" d="M73.488 123.168a2.309 2.309 0 01-.5 1.521 1.934 1.934 0 01-1.6.708h-1.527v-1.552h1.189c.542 0 .819-.382.819-1.133v-4.76h1.62zm2.796 2.236h-1.62v-7.458h1.62zm16.123 0h-1.626a1.971 1.971 0 01-1.946-1.423 1.848 1.848 0 01-1.638.7c-1.386 0-2.279-1.232-2.279-2.8 0-1.718.868-2.827 2.4-2.827h3.07v3.64a1.047 1.047 0 001.176 1.176h.831zm-4.76-7.446h-1.435v-1.342h1.435zm1.084 3.794v-1.527h-1.059c-.659 0-1.145.727-1.145 1.632 0 .807.462 1.478 1.109 1.478s1.1-.634 1.1-1.583zm1.09-3.794h-1.433v-1.342h1.435z"/><path class="b" d="M94.568 125.404h-2.463v-1.552h2.463z"/><path class="b" d="M96.853 125.404H94.39v-1.552h2.463z"/><path class="b" d="M100.123 123.168a2.309 2.309 0 01-.505 1.521 1.928 1.928 0 01-1.583.708h-1.379v-1.554h1.028c.542 0 .819-.382.819-1.133v-2.55h1.62zm-.092 4.145h-1.435v-1.336h1.435zm2.913-1.909h-1.62v-7.458h1.62zm7.913 0h-1.521q-.277 1.9-2.636 1.9h-.172v-1.293h.111c.616 0 1-.228 1.121-.677a4.168 4.168 0 01-.992.068 2.543 2.543 0 01-2.623-2.636 2.594 2.594 0 115.185.037v1.046h1.5zm-3.116-1.552v-1.121a1 1 0 00-1-1.121c-.616 0-.936.474-.936 1.09a1.035 1.035 0 001 1.152z"/><path class="b" d="M113.019 125.404h-2.463v-1.552h2.463z"/><path class="b" d="M115.303 125.404h-2.463v-1.552h2.463z"/><path class="b" d="M118.574 123.168a2.309 2.309 0 01-.5 1.521 1.921 1.921 0 01-1.583.708h-1.384v-1.554h1.028c.548 0 .825-.382.825-1.133v-2.55h1.614zm-.092 4.145h-1.425v-1.336h1.429zM7.864 142.29H6.257a1.971 1.971 0 01-1.94-1.423 1.848 1.848 0 01-1.644.7c-1.386 0-2.272-1.232-2.272-2.8 0-1.724.862-2.833 2.389-2.833h3.079v3.64a1.053 1.053 0 001.182 1.176h.831zm-4.76-7.421H1.669v-1.336h1.435zm1.084 3.794v-1.527H3.122c-.659 0-1.139.727-1.139 1.632 0 .807.462 1.478 1.109 1.478s1.1-.659 1.1-1.607zm1.084-3.794H3.843v-1.336h1.428z"/><path class="b" d="M8.72 144.205H7.304v-1.33H8.72zm4.034-1.915H7.569v-1.552h1.065c.542 0 .807-.369.807-1.109v-2.574h1.632v2.519a3.369 3.369 0 01-.185 1.164h1.884zm-1.85 1.915H9.478v-1.33h1.435z"/><path class="b" d="M20.421 142.29h-1.848a2.494 2.494 0 01-2.162.991 2.55 2.55 0 01-2.2-.991h-1.753v-1.552h1.293a2.447 2.447 0 012.623-2.7 2.463 2.463 0 012.71 2.7h1.336zm-2.956-1.587c0-.911-.351-1.379-1.028-1.379h-.117c-.616 0-.985.56-.985 1.312s.394 1.324 1.078 1.324 1.065-.48 1.065-1.256z"/><path class="b" d="M21.29 144.205h-1.435v-1.33h1.435zm4.058-1.915H20.12v-1.552h1.065c.542 0 .807-.369.807-1.109v-2.574h1.632v2.519a3.523 3.523 0 01-.185 1.164h1.909zm-1.847 1.915h-1.472v-1.33h1.429z"/><path class="b" d="M30.275 142.29H25.04v-1.552h1.1c.542 0 .819-.37.819-1.109v-4.76h1.626v4.73a3.523 3.523 0 01-.191 1.164h1.878z"/><path class="b" d="M39.814 142.286h-2.987a2.42 2.42 0 01-1.792-.807 3.321 3.321 0 01-1.084.573 4.723 4.723 0 01-1.435.234h-2.543v-1.552h2.525a2.8 2.8 0 001.472-.388 2.968 2.968 0 00-.874-.739 4.077 4.077 0 00-1.41-.579v-1.33a6.189 6.189 0 013.2-.936 5.758 5.758 0 013.577 1.273 5.087 5.087 0 01-.844 1.232 6.257 6.257 0 01-1.33 1.195 1.232 1.232 0 00.868.283h2.636zm-3.332-3.824a3.039 3.039 0 00-2.833-.062 4.717 4.717 0 01.831.462 4.311 4.311 0 01.721.7 3.14 3.14 0 00.751-.53 2.7 2.7 0 00.53-.566z"/><path class="b" d="M40.639 136.175h-1.435v-1.306h1.435zm4 6.115h-5.213v-1.552h1.065c.542 0 .819-.37.819-1.109v-2.574h1.632v2.519a3.523 3.523 0 01-.2 1.164h1.9zm-1.848-6.115h-1.432v-1.306h1.435z"/><path class="b" d="M47.783 140.06a2.309 2.309 0 01-.511 1.527 1.94 1.94 0 01-1.6.7H44.15v-1.552h1.195c.542 0 .819-.382.819-1.127v-4.739h1.62zm2.814 2.232h-1.638v-7.46h1.638zm13.641-1.881a1.755 1.755 0 01-1.952 1.912h-4.182q-3.831 0-3.831-3.239v-2.011h1.6v2.008a1.484 1.484 0 00.653 1.4 3.381 3.381 0 001.613.283h2.981a2.581 2.581 0 00.948-.111 1.041 1.041 0 00.579-1.065v-2.506h1.6zm-5.272-3.326h-1.44v-1.342h1.441zm2.186 0h-1.448v-1.342h1.447zm7.742 5.203h-1.527a1.767 1.767 0 01-1.952-1.909v-5.541h1.62v4.705c0 .788.2 1.2 1.386 1.2h.474z"/><path class="b" d="M69.83 144.205h-1.435v-1.33h1.435zm2.285-4.145a2.34 2.34 0 01-.5 1.527 1.94 1.94 0 01-1.583.7h-1.379v-1.552h1.041c.548 0 .825-.382.825-1.127v-2.553h1.614zm-.1 4.145h-1.441v-1.33h1.441zm7.882-1.916H78.37c-.185 1.269-1.059 1.909-2.63 1.909h-.179v-1.324h.142c.616 0 .991-.228 1.121-.677a4.206 4.206 0 01-.992.068 2.537 2.537 0 01-2.623-2.636 2.594 2.594 0 115.185.037v1.047h1.5zm-3.122-1.552v-1.121a1 1 0 00-.992-1.121c-.616 0-.936.474-.936 1.09a1.035 1.035 0 00.992 1.152z"/><path class="b" d="M80.774 136.175h-1.429v-1.306h1.429zm4 6.115h-5.235v-1.552h1.065c.542 0 .819-.37.819-1.109v-2.574h1.632v2.519a3.369 3.369 0 01-.2 1.164h1.9zm-1.847-6.115h-1.416v-1.306h1.429z"/><path class="b" d="M87.024 142.29h-2.463v-1.552h2.463z"/><path class="b" d="M98.707 142.29h-11.9v-1.552h1.232c.53 0 .819-.283.819-1.1v-2.583h1.632v2.519a3.467 3.467 0 01-.2 1.164h1.023c.542 0 .819-.345.819-1.035v-2.648h1.62v2.519a3.468 3.468 0 01-.2 1.164h1.028c.542 0 .819-.345.819-1.035v-2.648h1.632v2.506a3.3 3.3 0 01-.209 1.176h1.891z"/><path class="b" d="M106.331 142.29h-1.848a2.5 2.5 0 01-2.162.992 2.55 2.55 0 01-2.2-.992h-1.765v-1.552h1.293a2.669 2.669 0 115.327 0h1.355zm-2.962-1.583c0-.911-.345-1.379-1.028-1.379h-.111c-.616 0-.985.56-.985 1.312s.394 1.324 1.078 1.324 1.046-.48 1.046-1.261z"/><path class="b" d="M109.354 140.06a2.34 2.34 0 01-.505 1.527 1.952 1.952 0 01-1.6.7h-1.522v-1.552h1.189c.542 0 .825-.382.825-1.127v-4.739h1.614zm2.828 2.232h-1.614v-7.46h1.613zm6.386-.236c0 1.423-.881 2.143-2.648 2.143h-.16v-1.324h.117a1.232 1.232 0 001.287-1.072 1.232 1.232 0 01-1.145.53 2.568 2.568 0 01-2.6-2.679 2.506 2.506 0 012.6-2.648 2.55 2.55 0 012.568 2.673zm-1.62-2.353c0-.708-.406-1.232-.985-1.232s-.948.486-.948 1.17a1.065 1.065 0 001.01 1.189c.579.025.924-.419.924-1.127z"/></svg>