<svg xmlns="http://www.w3.org/2000/svg" xmlns:xlink="http://www.w3.org/1999/xlink" width="106.251" height="106.251" viewBox="0 0 106.251 106.251"><defs><style>.a{fill:#fff;}.b{fill:#27397c;}.c{filter:url(#a);}</style><filter id="a" x="0" y="0" width="106.251" height="106.251" filterUnits="userSpaceOnUse"><feOffset dy="8" input="SourceAlpha"/><feGaussianBlur stdDeviation="8.5" result="b"/><feFlood flood-opacity="0.118"/><feComposite operator="in" in2="b"/><feComposite in="SourceGraphic"/></filter></defs><g transform="translate(53.126 17.5) rotate(45)"><g class="c" transform="matrix(0.71, -0.71, 0.71, 0.71, -49.94, 25.19)"><circle class="a" cx="19.534" cy="19.534" r="19.534" transform="translate(53.13 17.5) rotate(45)"/></g><g transform="translate(10.192 10.192)"><g transform="translate(7.474)"><path class="b" d="M0,1.752A1.752,1.752,0,0,1,1.752,0h0A1.752,1.752,0,0,1,3.5,1.752v9.459L0,7.474V1.752Z" transform="translate(11.211 7.591) rotate(90)"/><path class="b" d="M0,1.868A1.868,1.868,0,0,1,1.868,0h0A1.868,1.868,0,0,1,3.737,1.868V7.591L0,11.094V1.868Z"/></g><g transform="translate(0 7.591)"><path class="b" d="M.867.707A1.868,1.868,0,0,1-1,2.575h0A1.868,1.868,0,0,1-2.87.707V-5.016l3.737-3.5V.707Z" transform="translate(10.344 8.519)"/><path class="b" d="M3.5,9.459a1.752,1.752,0,0,1-1.752,1.752h0A1.752,1.752,0,0,1,0,9.459V0L3.5,3.737V9.459Z" transform="translate(11.211) rotate(90)"/></g></g></g></svg>